<svg width="26" height="39" viewBox="0 0 26 39" fill="none" xmlns="http://www.w3.org/2000/svg">
<path d="M26 3.24426C26 3.55665 25.8211 3.90843 25.5534 4.14313L7.99682 19.5005L25.5534 34.858C25.8218 35.0927 26 35.4439 26 35.7568C26 36.0698 25.8211 36.421 25.5534 36.6557L23.32 38.6094C23.0517 38.8441 22.6502 39 22.2924 39C21.9347 39 21.5331 38.8435 21.2648 38.6094L0.446561 20.3989C0.178249 20.1642 0 19.8129 0 19.5C0 19.1871 0.178875 18.8358 0.446561 18.6011L21.2648 0.390624C21.5331 0.155922 21.9347 0 22.2924 0C22.6502 0 23.0517 0.156469 23.32 0.390624L25.5534 2.34429C25.8218 2.57899 26 2.89138 26 3.24316V3.24426Z" fill="#666666"/>
</svg>
