<svg width="29" height="39" viewBox="0 0 29 39" fill="none" xmlns="http://www.w3.org/2000/svg">
<path d="M29 19.4995C29 19.8119 28.8005 20.1636 28.5019 20.3983L5.28154 38.6094C4.98227 38.8441 4.53441 39 4.13538 39C3.73635 39 3.28849 38.8435 2.98922 38.6094L0.498088 36.6556C0.198816 36.4209 0 36.1085 0 35.7568C0 35.4444 0.199514 35.0926 0.498088 34.8579L20.0805 19.5L0.498088 4.14215C0.198816 3.90744 0 3.5562 0 3.24325C0 2.93031 0.199514 2.57906 0.498088 2.34436L2.98922 0.390635C3.28849 0.155926 3.73635 0 4.13538 0C4.53441 0 4.98227 0.156473 5.28154 0.390635L28.5019 18.6017C28.8012 18.8364 29 19.1876 29 19.5005V19.4995Z" fill="#666666"/>
</svg>
